<?xml version="1.0" encoding="UTF-8"?>
<svg id="Layer_1" data-name="Layer 1" xmlns="http://www.w3.org/2000/svg" viewBox="0 0 921.48 154.7">
  <defs>
    <style>
      .cls-1 {
        fill: #fdc421;
      }

      .cls-2 {
        fill: #161616;
      }

      .cls-3 {
        fill: #1e1d1e;
      }
    </style>
  </defs>
  <g>
    <polygon class="cls-3" points="178.65 146.97 154.71 146.97 143.78 128.98 122.81 94.47 104.44 64.24 95.09 48.87 77.36 19.69 89.33 0 107.31 29.59 116.64 44.94 138.97 81.68 169.03 131.14 178.65 146.97"/>
    <path class="cls-1" d="m149.15,154.7c-3.86-2.15-9.77-5.38-17.13-9.18-.87-.45-.69-.35-7.88-4-9.62-4.89-19.24-9.78-28.87-14.67-.58-.3-1.16-.59-1.75-.89-2.14-1.09-4.28-2.18-6.42-3.26,8.85.76,17.7,1.51,26.55,2.27-3.47-5.48-6.95-10.97-10.42-16.45-4.62-7.29-9.24-14.59-13.86-21.88l-17.8,28.17-3.94,6.23-.5.78-17.46.17,1.44-2.37,7.07-11.62,21.9-36.04,9.24-15.21,9.28,15.28,16.48,27.11.04-.03,16.66,27.42.2.33,11.35,18.68c1.93,3.06,3.87,6.12,5.8,9.18Z"/>
    <path class="cls-2" d="m80.07,128.29l-23.6,18.68H0l17.49-28.78,13.67-22.48,30.87-50.8h0l9.64-15.86c.24.39.48.78.72,1.17l11.62,19.12-9.39,15.44-24.61,40.5-9.06,14.91-4.92,8.1h44.04Z"/>
  </g>
  <g>
    <g>
      <path d="m283.14,93.94h-18.05l-6.52-12.03h-37.54l-6.52,12.03h-18.05l34.06-62.71h18.64l33.98,62.71Zm-43.3-46.69l-11.86,21.78h23.64l-11.78-21.78Z"/>
      <path d="m367.63,93.94h-18.05l-6.52-12.03h-37.54l-6.52,12.03h-18.05l34.06-62.71h18.64l33.98,62.71Zm-43.3-46.69l-11.86,21.78h23.64l-11.78-21.78Z"/>
      <path d="m452.11,93.94h-18.05l-6.53-12.03h-37.54l-6.52,12.03h-18.05l34.06-62.71h18.64l33.98,62.71Zm-43.3-46.69l-11.86,21.78h23.64l-11.78-21.78Z"/>
      <path d="m494.82,57.08c5.93,0,11.07.37,15.42,1.1,4.35.73,7.98,2.32,10.89,4.75,2.91,2.43,4.36,6.02,4.36,10.76,0,8.7-3.81,14.57-11.44,17.63-7.63,3.05-16.18,4.58-25.68,4.58s-18.05-1.57-26.18-4.7c-8.13-3.14-12.2-9.11-12.2-17.92l18.22-.17c0,3.11,1.2,5.42,3.6,6.95s5.03,2.47,7.88,2.84c2.85.37,5.95.55,9.28.55,5.08,0,9.46-.73,13.13-2.2,3.67-1.47,5.54-3.84,5.59-7.12v-.08c0-2.43-1.82-4-5.47-4.7-3.64-.71-8.04-1.06-13.18-1.06h-5.25c-6.78,0-12.51-.35-17.2-1.06-4.69-.71-8.63-2.34-11.82-4.92-3.19-2.57-4.79-6.45-4.79-11.65,0-14.18,12.79-21.27,38.39-21.27,9.1,0,17.55,1.55,25.38,4.66,7.82,3.11,11.74,9.1,11.74,17.96h-18.05c0-3.16-1.84-5.56-5.51-7.2-3.67-1.64-8.13-2.57-13.39-2.8-5.71,0-10.55.68-14.53,2.03-3.98,1.36-5.97,3.47-5.97,6.36,0,4.52,6.55,6.78,19.66,6.78l7.12-.08Z"/>
      <path d="m603.2,31.23v14.58h-27.29v48.13h-17.63v-48.13h-27.62v-14.58h72.54Zm-72.54,14.49v-14.49h72.54l-72.54,14.49Z"/>
      <path d="m665.65,34.16c6.04,2.85,10.79,6.78,14.24,11.78,3.45,5,5.17,10.63,5.17,16.91s-1.72,11.81-5.17,16.78c-3.45,4.97-8.19,8.88-14.24,11.74-6.04,2.85-12.85,4.28-20.42,4.28s-14-1.43-20.12-4.28c-6.13-2.85-11-6.78-14.62-11.78-3.62-5-5.42-10.58-5.42-16.74s1.79-11.83,5.38-16.86c3.59-5.03,8.46-8.97,14.62-11.82,6.16-2.85,12.88-4.28,20.17-4.28s14.38,1.43,20.42,4.28Zm-10,45.42c3.28-1.5,5.93-3.67,7.97-6.52,2.03-2.85,3.05-6.26,3.05-10.21s-1.02-7.3-3.05-10.21c-2.03-2.91-4.69-5.13-7.97-6.65s-6.75-2.29-10.42-2.29-7.33.75-10.63,2.25c-3.3,1.5-5.95,3.69-7.92,6.57-1.98,2.88-2.97,6.27-2.97,10.17s1,7.39,3.01,10.3c2,2.91,4.66,5.11,7.96,6.61,3.3,1.5,6.82,2.25,10.55,2.25s7.15-.75,10.42-2.25Z"/>
      <path d="m750.73,72.67V31.23h17.63v62.71h-17.63l-41.95-41.52v41.52h-17.54V31.23h17.54l41.95,41.44Zm-41.95,21.27h-17.54V31.23l17.54,62.71Z"/>
      <path d="m834.96,68.35h-41.01v12.54l48.13-.34v13.39h-65.67V31.23h65.67l.08,13.3h-48.22v10.68h41.01v13.13Z"/>
      <path d="m901.22,31.23h20.25l-24.74,31.61,24.74,31.1h-20.25l-17.46-21.69-17.46,21.69h-20.34l24.83-31.1-24.83-31.61h20.34l17.46,21.86,17.46-21.86Z"/>
    </g>
    <g>
      <path d="m212.91,118.14c1.37.18,2.51.6,3.42,1.26.91.66,1.36,1.65,1.36,2.98,0,2.37-1.02,3.96-3.07,4.78-2.04.82-4.35,1.23-6.92,1.23-1.39,0-2.86-.15-4.39-.46-1.54-.31-2.91-.92-4.11-1.86-1.21-.93-1.81-2.25-1.81-3.96l3.22-.09c0,1.1.43,1.91,1.3,2.44s1.82.86,2.85.99c1.03.13,2.13.19,3.29.19,1.79,0,3.32-.24,4.59-.73s1.92-1.3,1.94-2.44v-.02c0-.77-.63-1.26-1.88-1.47-1.25-.21-2.79-.32-4.6-.32h-.61c-2.29-.02-4.11-.12-5.48-.3-1.37-.19-2.48-.63-3.34-1.32-.85-.69-1.28-1.75-1.28-3.19,0-2.43,1.08-4.02,3.23-4.77s4.51-1.13,7.08-1.13c1.33,0,2.74.15,4.23.46,1.49.31,2.82.92,3.99,1.86,1.17.93,1.76,2.25,1.76,3.96h-3.22c0-1.11-.65-1.95-1.94-2.53-1.29-.57-2.87-.9-4.73-.97-2.04,0-3.76.25-5.18.74-1.42.49-2.13,1.26-2.13,2.31,0,.88.66,1.44,1.97,1.7,1.32.26,2.89.39,4.72.39h.63c2.02,0,3.72.09,5.09.27Z"/>
      <path d="m223.1,117.07h12.45v-6.6h3.05v17.38h-3.05v-7.96h-12.45v7.96h-3.05v-17.38h3.05v6.6Z"/>
      <path d="m262.49,127.85h-3.29l-2.18-4.04h-11.53l-2.18,4.04h-3.29l9.42-17.38h3.64l9.42,17.38Zm-11.23-14.68l-4.23,7.78h8.43l-4.21-7.78Z"/>
      <path d="m279.65,111.2c1.12.49,1.99,1.16,2.61,2.03s.93,1.88.93,3.02v.09c0,1.93-.54,3.39-1.62,4.38-1.08,1-2.72,1.49-4.91,1.49h-9.68v5.64h-3.08v-17.38h11.89c1.46,0,2.74.24,3.86.73Zm-1.71,8.25c.6-.11,1.12-.39,1.55-.86.43-.46.65-1.19.65-2.17s-.22-1.8-.65-2.29-.94-.79-1.54-.9c-.6-.11-1.37-.16-2.33-.16h-1.01c-.45,0-1.23,0-2.34.01-1.1,0-2.88.01-5.32.01l.02,6.53h8.64c.94,0,1.71-.05,2.31-.17Z"/>
      <path d="m288.59,127.85h-3.05v-17.38h3.05v17.38Z"/>
      <path d="m308.08,123.65v-13.18h3.05v17.38h-3.05l-13.62-13.2v13.2h-3.05v-17.38h3.05l13.62,13.18Zm-13.62,4.21h-3.05v-17.38l3.05,17.38Z"/>
      <path d="m334.32,127.85h-1.93l-.47-2.54c-.96.96-2.12,1.7-3.5,2.22-1.38.52-2.85.79-4.42.79-1.99,0-3.78-.4-5.38-1.2-1.6-.8-2.85-1.89-3.77-3.28-.92-1.39-1.37-2.94-1.37-4.66s.47-3.3,1.41-4.69,2.21-2.47,3.82-3.25c1.6-.78,3.37-1.17,5.3-1.17,1.38,0,2.75.23,4.11.7,1.36.47,2.58,1.19,3.64,2.16,1.06.97,1.82,2.18,2.26,3.62l-3.24.02c-.38-.86-.94-1.58-1.69-2.15-.75-.57-1.58-.99-2.48-1.27s-1.76-.41-2.57-.41c-1.42,0-2.71.26-3.84.79-1.14.52-2.03,1.28-2.68,2.25s-.97,2.11-.97,3.39c0,1.36.34,2.53,1.02,3.51.68.98,1.59,1.72,2.74,2.22,1.14.5,2.39.75,3.73.75s2.74-.32,3.99-.96c1.25-.64,2.2-1.62,2.84-2.94h-6.58v-2.4h9.94v1.69l.09,6.79Z"/>
      <path d="m363.83,110.47v2.7h-8.06v14.68h-3.05v-14.68h-8.17v-2.7h19.29Zm-19.29,2.63v-2.63h19.29l-19.29,2.63Z"/>
      <path d="m369.35,117.07h12.45v-6.6h3.05v17.38h-3.05v-7.96h-12.45v7.96h-3.05v-17.38h3.05v6.6Z"/>
      <path d="m403.08,120.1h-12.36v5.14l14.33-.09v2.7h-17.38v-17.38h17.38l.02,2.7h-14.35v4.23h12.36v2.7Z"/>
      <path d="m437.94,123.77l6.48-13.29h3.41l-8.48,17.38h-3.41l-4.51-12.52-4.25,12.52h-3.41l-8.95-17.38h3.64l6.69,13.32,4.51-13.32h3.64l4.63,13.29Z"/>
      <path d="m463.37,111.28c1.59.79,2.83,1.88,3.74,3.27s1.35,2.95,1.35,4.69-.45,3.27-1.35,4.65-2.14,2.46-3.72,3.25c-1.58.79-3.37,1.19-5.36,1.19s-3.7-.4-5.31-1.19c-1.61-.79-2.89-1.88-3.83-3.26-.94-1.39-1.41-2.93-1.41-4.64s.47-3.28,1.41-4.67c.94-1.39,2.21-2.49,3.82-3.28,1.6-.79,3.37-1.19,5.3-1.19s3.78.4,5.37,1.19Zm-1.77,13.64c1.13-.5,2.04-1.24,2.72-2.21.69-.97,1.03-2.13,1.03-3.48s-.35-2.47-1.05-3.45c-.7-.99-1.62-1.74-2.76-2.25-1.14-.52-2.35-.78-3.62-.78-1.38,0-2.63.26-3.75.78-1.12.52-2,1.26-2.64,2.24-.64.98-.96,2.13-.96,3.46s.34,2.53,1.02,3.5c.68.97,1.59,1.7,2.71,2.2,1.13.49,2.36.74,3.69.74s2.47-.25,3.59-.75Z"/>
      <path d="m486.12,127.81l-4.82-5.61h-7.54v5.61h-3.08v-17.38h11.89c1.46,0,2.74.24,3.86.73,1.12.49,1.99,1.16,2.61,2.03.62.87.93,1.88.93,3.02v.09c0,1.49-.43,2.72-1.3,3.69s-2.07,1.62-3.61,1.95l5.05,5.87h-3.99Zm.01-13.66c-.38-.48-.86-.77-1.43-.88-.57-.11-1.37-.16-2.38-.16-.45,0-.85,0-1.17.02-1.57.06-4.03.09-7.38.09v6.3h8.55c1.02,0,1.81-.05,2.38-.15.57-.1,1.05-.38,1.43-.82s.58-1.15.58-2.13c0-1.03-.19-1.79-.58-2.27Z"/>
      <path d="m495.4,110.47v14.73h12.45v2.65h-15.5v-17.38h3.05Z"/>
      <path d="m527,123.63c-.78,1.32-1.89,2.35-3.34,3.1-1.44.75-3.12,1.13-5.03,1.13h-8.32v-17.38h8.29c1.91,0,3.59.38,5.04,1.13s2.56,1.79,3.35,3.1,1.17,2.81,1.17,4.49-.39,3.12-1.17,4.44Zm-7.94,1.36c1.17,0,2.22-.22,3.14-.67s1.64-1.1,2.16-1.97c.52-.87.79-1.92.79-3.16,0-1.03-.26-2-.79-2.89-.53-.89-1.25-1.61-2.18-2.14s-1.97-.8-3.11-.8h-5.69v11.63h5.69Z"/>
      <path d="m541.79,127.85h-3.05v-17.38h3.05v17.38Z"/>
      <path d="m561.29,123.65v-13.18h3.05v17.38h-3.05l-13.62-13.2v13.2h-3.05v-17.38h3.05l13.62,13.18Zm-13.62,4.21h-3.05v-17.38l3.05,17.38Z"/>
      <path d="m597.33,110.47v17.38h-3.05v-12.38l-6.04,12.38h-3.31l-6.48-12.59v12.59h-3.05v-17.38h3.9l7.26,14.07,6.86-14.07h3.92Z"/>
      <path d="m621.22,127.85h-3.29l-2.18-4.04h-11.53l-2.18,4.04h-3.29l9.42-17.38h3.64l9.42,17.38Zm-11.23-14.68l-4.23,7.78h8.43l-4.21-7.78Z"/>
      <path d="m638.06,127.81l-4.82-5.61h-7.54v5.61h-3.08v-17.38h11.89c1.46,0,2.74.24,3.86.73,1.12.49,1.99,1.16,2.61,2.03.62.87.93,1.88.93,3.02v.09c0,1.49-.43,2.72-1.3,3.69s-2.07,1.62-3.61,1.95l5.05,5.87h-3.99Zm.01-13.66c-.38-.48-.86-.77-1.43-.88-.57-.11-1.37-.16-2.38-.16-.45,0-.85,0-1.17.02-1.57.06-4.03.09-7.38.09v6.3h8.55c1.02,0,1.81-.05,2.38-.15.57-.1,1.05-.38,1.43-.82s.58-1.15.58-2.13c0-1.03-.19-1.79-.58-2.27Z"/>
      <path d="m663.45,120.11c.67.65,1.01,1.58,1.01,2.78v.09c0,1.46-.34,2.53-1.02,3.22-.68.69-1.59,1.13-2.72,1.33-1.14.2-2.72.31-4.76.34h-1.17l-10.5-.02v-17.38h12.76c1.82.02,3.27.39,4.35,1.13,1.08.74,1.62,1.78,1.62,3.12v.09c0,1.02-.21,1.85-.63,2.49-.42.64-1.06,1.12-1.9,1.43,1.32.27,2.31.72,2.98,1.37Zm-3.91-6.47c-.31-.33-.7-.53-1.19-.61-.49-.08-1.18-.12-2.09-.12h-8.95v4.6c.72.02,1.43.02,2.14.02s1.37,0,2,.02c1.47,0,2.25,0,2.35.02h2.47c.96,0,1.66-.03,2.1-.09s.83-.26,1.15-.6c.32-.34.48-.9.48-1.68,0-.72-.15-1.25-.46-1.57Zm-12.23,4.18h.05l-.05-.02v.02Zm12.12,7.39c.53-.09.96-.32,1.28-.71.32-.38.48-1.01.48-1.87s-.16-1.43-.48-1.8c-.32-.37-.75-.6-1.28-.68-.53-.09-1.34-.13-2.42-.13h-9.7v5.26c3.93,0,6.77.02,8.53.05h1.17c1.08,0,1.89-.04,2.42-.13Z"/>
      <path d="m669.87,110.47v14.73h12.45v2.65h-15.5v-17.38h3.05Z"/>
      <path d="m700.19,120.1h-12.36v5.14l14.33-.09v2.7h-17.38v-17.38h17.38l.02,2.7h-14.35v4.23h12.36v2.7Z"/>
      <path d="m733.95,127.85h-3.29l-2.18-4.04h-11.53l-2.18,4.04h-3.29l9.42-17.38h3.64l9.42,17.38Zm-11.23-14.68l-4.23,7.78h8.43l-4.21-7.78Z"/>
      <path d="m752.04,123.65v-13.18h3.05v17.38h-3.05l-13.62-13.2v13.2h-3.05v-17.38h3.05l13.62,13.18Zm-13.62,4.21h-3.05v-17.38l3.05,17.38Z"/>
      <path d="m774.59,123.63c-.78,1.32-1.89,2.35-3.34,3.1-1.44.75-3.12,1.13-5.03,1.13h-8.32v-17.38h8.29c1.91,0,3.59.38,5.04,1.13s2.56,1.79,3.35,3.1,1.17,2.81,1.17,4.49-.39,3.12-1.17,4.44Zm-7.94,1.36c1.17,0,2.22-.22,3.14-.67s1.64-1.1,2.16-1.97c.52-.87.79-1.92.79-3.16,0-1.03-.26-2-.79-2.89-.53-.89-1.25-1.61-2.18-2.14s-1.97-.8-3.11-.8h-5.69v11.63h5.69Z"/>
      <path d="m806.7,127.85h-1.93l-.47-2.54c-.96.96-2.12,1.7-3.5,2.22s-2.85.79-4.42.79c-1.99,0-3.78-.4-5.38-1.2s-2.85-1.89-3.77-3.28c-.92-1.39-1.37-2.94-1.37-4.66s.47-3.3,1.41-4.69c.94-1.39,2.21-2.47,3.82-3.25,1.61-.78,3.37-1.17,5.3-1.17,1.38,0,2.75.23,4.11.7s2.58,1.19,3.64,2.16c1.06.97,1.82,2.18,2.25,3.62l-3.24.02c-.38-.86-.94-1.58-1.69-2.15-.75-.57-1.58-.99-2.48-1.27-.9-.27-1.76-.41-2.57-.41-1.43,0-2.71.26-3.84.79-1.14.52-2.03,1.28-2.68,2.25-.65.98-.98,2.11-.98,3.39,0,1.36.34,2.53,1.02,3.51.68.98,1.59,1.72,2.74,2.22,1.14.5,2.39.75,3.74.75s2.74-.32,3.99-.96c1.25-.64,2.2-1.62,2.84-2.94h-6.58v-2.4h9.94v1.69l.09,6.79Z"/>
      <path d="m824.48,127.81l-4.82-5.61h-7.54v5.61h-3.08v-17.38h11.89c1.46,0,2.74.24,3.86.73,1.12.49,1.99,1.16,2.61,2.03.62.87.93,1.88.93,3.02v.09c0,1.49-.43,2.72-1.3,3.69s-2.07,1.62-3.61,1.95l5.05,5.87h-3.99Zm.01-13.66c-.38-.48-.86-.77-1.43-.88-.57-.11-1.37-.16-2.38-.16-.45,0-.85,0-1.17.02-1.57.06-4.03.09-7.38.09v6.3h8.55c1.02,0,1.81-.05,2.38-.15.57-.1,1.05-.38,1.43-.82s.58-1.15.58-2.13c0-1.03-.19-1.79-.58-2.27Z"/>
      <path d="m851.78,127.85h-3.29l-2.18-4.04h-11.53l-2.18,4.04h-3.29l9.42-17.38h3.64l9.42,17.38Zm-11.23-14.68l-4.23,7.78h8.43l-4.21-7.78Z"/>
      <path d="m869.86,123.65v-13.18h3.05v17.38h-3.05l-13.62-13.2v13.2h-3.05v-17.38h3.05l13.62,13.18Zm-13.62,4.21h-3.05v-17.38l3.05,17.38Z"/>
      <path d="m878.79,127.85h-3.05v-17.38h3.05v17.38Z"/>
      <path d="m900.54,110.47v2.7h-8.06v14.68h-3.05v-14.68h-8.17v-2.7h19.29Zm-19.29,2.63v-2.63h19.29l-19.29,2.63Z"/>
      <path d="m918.42,120.1h-12.36v5.14l14.33-.09v2.7h-17.38v-17.38h17.38l.02,2.7h-14.35v4.23h12.36v2.7Z"/>
    </g>
  </g>
</svg>